<svg version="1.0" xmlns="http://www.w3.org/2000/svg" viewBox="0 0 1024 1024"><g fill="rgba(255,255,255,255)" stroke-width="0"><path d="M0 70.9v70.9l6.8 4c22.8 13.6 53.7 45.2 81.8 83.7 8.8 12.1 33.2 48.4 40.6 60.6l1.6 2.6 24.4.7c13.4.4 41.2 1.1 61.8 1.6 37.1 1 75 2.4 92.5 3.5 33 2.1 51.5 3.5 71 5.4 5.5.6 15 1.4 21 2 9.6.9 38.6 4.5 57 7.1 15.5 2.2 22.5 3.2 28.5 4.1 3.6.5 9.4 1.4 13 1.9 19 2.7 39.8 6 56.5 8.9 3.3.5 8.9 1.5 12.5 2.1 3.6.6 10.8 1.9 16 3 5.2 1 14.7 2.8 21 4 6.3 1.2 13.3 2.5 15.5 3 6 1.3 14 2.8 24 4.5 5 .9 10.8 2 13 2.5 2.2.4 6.5 1.3 9.5 1.9 10.3 2 48.5 10.2 57 12.2 12.9 3 15.8 3.7 24.5 5.4 4.4.9 9.8 2.1 12 2.6 5.3 1.4 8.9 2.3 22 5.5 9.2 2.2 25.4 6.6 42.5 11.4 3 .9 7.5 2.1 21.5 6 24.7 6.8 69.9 23.5 85 31.3 23.6 12.2 34.5 19.6 46 31.1 9.6 9.7 13.4 16 14.3 23.2.7 6.6-4 15.7-12.5 24.1-7.7 7.8-28.7 22.1-40.8 27.8-12 5.7-14.8 7-17 8.2-1.1.6-4.7 1.9-8 2.8-3.3 1-9.8 3-14.5 4.5-4.7 1.5-11.2 3.6-14.5 4.5-3.3.9-7.1 2.1-8.5 2.5-3 .9-7.1 2.1-21.1 5.9-18.3 5-40.1 9.4-62.7 12.5-5.1.7-9.7 1.7-10.2 2.2-.5.5 1.8 5 5.6 10.9 3.6 5.5 9.5 14.9 13.1 20.9l6.6 11-4.9 4.3c-21 18.5-46.5 32.2-80.4 43-22.9 7.3-37.1 11.1-53.5 14.3-3.3.6-7.6 1.5-9.5 2-10.2 2.4-53.6 8.3-81 11-35.8 3.4-62.4 4.8-124 6.5-32.2.9-59.4 1.8-60.5 2-1.9.4-2 1.3-2.2 17.2-.2 9.2-.8 19.7-1.4 23.3-7.8 45.4-29.8 89.7-59 118.8-15.1 15.2-32.6 26.2-41.6 26.2-7.3 0-19.5-6.7-32.2-17.6-12.4-10.7-37.3-35.9-55.6-56.4-7.2-7.9-16-17.6-19.7-21.5-3.6-3.8-9.5-10.4-13-14.6-3.4-4.2-13.7-15.9-22.6-26.1l-16.4-18.6-25.1-.6c-13.9-.3-43.3-.8-65.4-1.2L0 726.8V1024h1024V0H0v70.9z"/><path d="M108.8 335c-3.9 2.1-14 2.4-64.3 1.7-14.2-.1-15.3 0-20.5 2.4-3 1.4-9.7 3.6-14.8 4.9L0 346.2v346.5l22 .8c27.5.9 55.6-.1 77.5-2.7 9.4-1.1 19.7-2.3 22.9-2.6l5.9-.7.2-33.5c.1-32.5.2-33.7 2.5-40 1.3-3.6 2.7-8.5 3.1-11 .4-2.5 1.3-7.4 1.9-11 .7-3.6 1.5-8.8 1.9-11.5.5-2.8 1.5-6.7 2.5-8.7.9-2.1 1.6-5 1.6-6.5s1.1-7.4 2.5-13.1c1.4-5.7 2.5-12.8 2.5-15.7 0-3 .9-7.6 1.9-10.3 3.5-8.8 2.6-48-1.6-71.2-1.9-10.3-1.3-37.9 1.1-50.5 1.2-6.3 1.4-13.5 1.1-34-.3-14.3-.8-28.3-1.1-31.1l-.5-5.1-4.6-.7c-2.5-.3-10.5-.6-17.7-.6-11 .1-13.7.4-16.8 2zm271.5 21.1c1.6 33.3 1.9 61.6.7 70.9-.6 5.2-1.4 23.9-1.6 41.5-.2 19.4-.9 33.4-1.5 35.6-.9 2.7-.9 6.2 0 13.2.6 5.3 1.1 13 1.1 17.2 0 4.2.4 8.5 1 9.5.5 1 1.1 6.7 1.4 12.6.2 6 .7 12.5 1 14.4.4 1.9 1.1 6.2 1.7 9.5.6 3.3 1.7 8 2.4 10.5 3.7 12.3 4.5 15.4 4.5 17.2 0 1.2.4 3.7.9 5.7.6 2 1.7 6.5 2.7 10.1.9 3.6 2.9 10.5 4.5 15.3 1.6 4.9 2.9 10.5 2.9 12.5 0 2.1.3 4.7.6 5.9l.6 2.3h24.7c68.6-.1 144.4-4.8 191.6-12 3.3-.5 10.7-1.6 16.5-2.5 5.8-.9 12.8-2.1 15.5-2.6 2.8-.6 7.3-1.5 10-2 2.8-.6 6.8-1.4 9-1.9s7.4-1.7 11.5-2.6c4.1-.9 8.6-1.9 10-2.4 1.4-.4 4.5-1.3 7-2 18.9-5.2 45-17.1 52.3-23.9 3.9-3.6 3.1-6.5-4.4-16.5-11.2-15-14.9-25.4-14.9-41.6 0-11.6 0-11.5 10-12.5 3.6-.3 10.1-1 14.5-1.5s13.9-1.6 21-2.5c14.7-1.7 25.7-3.2 33-4.5 2.8-.5 8.2-1.4 12-2 14-2.3 36.3-7 42.5-9 1.4-.4 5.7-1.8 9.7-2.9l7.2-2.2-.5-3.7c-.3-2-.9-5.3-1.4-7.2-3.6-13.7-4-21.1-2.5-38.9.9-9.6 1.8-18.4 2.1-19.6.4-1.7-.1-2.4-2.3-3.3-2.6-1-16.8-5.2-30.2-8.8-2.9-.8-9.5-2.6-14.5-4-9.2-2.6-25.1-6.8-31.6-8.4-1.9-.5-5.3-1.3-7.5-1.9-2.2-.5-5.1-1.2-6.5-1.6-1.4-.3-4.3-1-6.5-1.5s-8.7-2.1-14.5-3.4c-13.3-3.1-31-7.3-42-9.7-4.7-1.1-10.3-2.4-12.5-2.9-2.2-.5-6.5-1.4-9.5-2-3-.7-7.1-1.6-9-2-1.9-.5-6-1.3-9-2-17.6-3.5-27-5.3-31-6-2.5-.4-10.3-1.9-17.5-3.3-7.1-1.4-18.8-3.7-26-5.1-14.9-3-20.8-4.1-28.5-5.5-3-.5-8-1.4-11-2-3-.6-11.1-2-18-3.1-6.9-1.2-15-2.6-18-3.1-3-.6-8-1.4-11-1.9s-12.5-2.1-21-3.5c-23.5-3.8-44.8-7-63.5-9.5-3.8-.5-8.8-1.1-11-1.4-6.2-.9-31.1-3.5-39.9-4.2l-7.9-.7.6 13.4zm296.7 55c24.2 6.6 41.2 26.6 45 52.5 3.9 26.8-13.8 56-39.6 65.1-17.9 6.4-33.3 5.5-50.4-2.9-19.9-9.7-33.9-32.4-34-55-.1-27.4 20-53.1 47-60.2 8.4-2.2 23.1-2 32 .5z"/><path d="M657.4 444.9c-10.5 5.4-14.5 12.3-13.4 22.5.5 5.1 1.1 6.2 5.6 10.7 2.7 2.7 6.2 5.6 7.8 6.4 3.6 1.8 11.8 1.9 14.9.3 4.8-2.8 11.8-10.3 12.8-14 1.1-4.2.4-12.9-1.4-16.8-1.7-3.7-6.8-9-8.8-9-1 0-2.1-.5-2.4-1-1-1.6-11.7-1-15.1.9z"/></g><path d="M402.4 659c.1 1.3 4 1.5 28.9 1.5H460l-28.4-.2c-21.5-.3-28.6-.6-28.9-1.6-.2-.6-.3-.5-.3.3zM53.2 727.7c9.2.2 24.5.2 34 0 9.5-.1 2-.3-16.7-.3s-26.5.2-17.3.3zm152.5 85.8c5.4 6 18.6 19.8 29.3 30.5l19.4 19.5-18.9-19.5c-10.5-10.8-23.6-24.5-29.3-30.5l-10.4-11 9.9 11z" fill="rgba(204,204,204,255)"/><path d="M44.7 726.7c8.4.2 22.2.2 30.6 0 8.3-.1 1.5-.3-15.3-.3s-23.6.2-15.3.3z" fill="rgba(153,153,153,255)"/><g fill="rgba(0,0,0,255)" stroke-width="0"><path d="M0 244.3v99.4l5.3-1.4c2.8-.8 6.8-1.8 8.7-2.2 1.9-.4 5.8-1.8 8.5-3 7.2-3.2 24.9-4.9 34.1-3.2 4.6.9 13.8 1.2 27.9.9 17.8-.2 21.6-.6 24.6-2.1 3.2-1.6 5.9-1.8 22.2-1.5 10.2.2 18.9.7 19.4 1.1 1.3 1.4.9 71.1-.5 79.2-2.3 13.3-2.6 30.2-.7 39.5 2.3 11.5 3.4 24.6 4.1 49 .5 19.6.5 20.7-1.7 25.5-1.4 3.2-2.3 7.3-2.4 11.5-.1 3.6-1.4 11.3-2.8 17.2-1.5 5.9-2.7 11.8-2.7 13-.1 1.3-.9 4.1-2 6.3s-1.9 5.3-2 7c0 3.4-3.3 21-5.7 30.5-3.4 13.6-3.6 15.8-3.3 25 .4 11.7.3 23.6-.5 35.7-.5 7.4-.3 9.7 1 12.3 2.2 4.3.9 5.6-6.3 6.3-3.1.3-13.8 1.6-23.7 2.8-15.7 1.9-23.3 2.2-59.7 2.3l-41.8.1V724h6.3c30.2-.1 123.4 2.5 124.7 3.4 3.2 2.3 20.7 21.4 25.4 27.6 2.7 3.6 5.3 6.6 5.7 6.8.5.2 4.6 4.7 9.1 10s12.5 14.3 17.8 19.9c5.2 5.5 14.2 15.4 20 21.8 12.7 14.2 44.1 45.8 53.5 53.9 8 6.8 19.6 12.7 26.6 13.4 4.1.4 6.1-.1 12.6-3.2 10.8-5.1 14.4-7.7 25.3-18.1 9.3-8.8 22.6-25.3 30.4-37.8 9.6-15.1 23.9-48.8 27-63.2 3.9-18.7 5.3-30.6 5.5-46.9.1-7.7.4-14.3.6-14.7.7-1 20.6-1.8 72.5-3 63.3-1.4 103.4-4.1 147-9.9 13.5-1.8 39.8-5.9 47.1-7.3 4.2-.9 13-2.6 26.3-5.2 11-2.2 48.1-13.5 54.1-16.5 1.1-.5 5.7-2.3 10.2-3.9 8.5-3.1 20.1-8.9 28.8-14.5 12.2-7.8 14.4-9.4 20.7-14.6 7-5.8 8.6-8.1 6.8-10.2-2-2.4-9.5-14.3-14.5-22.8-2.7-4.7-5.9-9.8-7.2-11.3-1.3-1.6-2.3-3.9-2.3-5.2 0-2.5.2-2.6 11.5-4.4 6.3-1.1 26.8-4.7 34.5-6.1 2.5-.5 8.3-1.6 13-2.4 11.9-2.1 26.7-6.4 56.9-16.3 9.1-2.9 17.1-5.1 17.8-4.9.7.3 1.5.1 1.8-.4.4-.6 1.4-1 2.3-1 .9 0 4.4-1.3 7.7-2.9 3.3-1.6 9.5-4.6 13.8-6.7 4.4-2 9-4.7 10.5-6 1.4-1.4 6.1-4.3 10.4-6.6 6-3.2 10.1-6.6 17.7-14.2 8.7-8.9 10.1-10.8 11.6-15.9 1.8-6.1 1.4-9.9-1.4-15.4-1.8-3.6-20.3-22.8-23.5-24.5-1.2-.6-5.2-3.2-9.1-5.7-14-9.2-26.7-15.6-45-22.6-8.2-3.1-16.3-6.3-18-7-7-3.1-22.2-8.2-35.5-11.9-4.7-1.4-14.8-4.3-22.5-6.5-31.4-9.3-41.4-12-49-13.6-4.4-.9-11.6-2.5-16-3.5-4.4-1.1-12.9-3.1-19-4.5-6-1.4-16.6-3.8-23.5-5.5-6.9-1.6-16.3-3.8-21-4.9-4.7-1.1-15-3.2-23-4.6-15.9-2.8-17.6-3.1-39.5-7.6-47.8-9.6-66.1-13.2-75-14.5-10.4-1.5-18.8-2.8-29-4.5-25.6-4.2-68.9-10.9-90-13.8-20.6-2.9-29.6-3.9-55.5-6.1-5.8-.5-15.9-1.4-22.5-2-6.6-.6-14.5-1.3-17.5-1.5-53.7-4.2-93.6-6.1-167.5-7.9l-55.9-1.4-1.9-2.3c-3-3.9-6.2-8.8-12.3-18.9-3.1-5.2-6.7-10.6-7.9-12-2.3-2.7-2.3-2.7-12.1-17.4-3.6-5.4-9.3-13.4-12.7-17.8-3.4-4.3-8.1-10.7-10.5-14-2.3-3.4-4.5-6.4-5-6.7-.4-.3-2.2-2.4-4.1-4.6-12.1-14.4-21.2-23.8-32.7-34-14.8-13-14.6-12.9-26.6-19.8L0 144.9v99.4zM400.5 342c27.7 3.2 41.1 4.9 54.5 7 3.6.6 9.4 1.4 13 2 3.6.5 9.2 1.4 12.5 1.9 3.3.5 12.3 1.9 20 3 18.6 2.7 24.1 3.6 42.5 7 3 .6 9.6 1.7 14.5 2.6 15.9 2.7 20.9 3.6 25 4.5 2.2.5 6.5 1.3 9.5 1.9 3 .6 9.1 1.8 13.5 2.7 10.2 2.1 14.8 2.9 26.5 4.9 5.2.9 11.5 2 14 2.4l10 2c5.9 1.1 37.3 7.7 43 9.1 3.7.9 4.5 1 27 5.9 27.6 6.1 32.5 7.2 36 8.1 1.9.5 12.5 3.1 23.5 5.9 11 2.7 23.6 6 28 7.2 4.4 1.2 12.5 3.2 18 4.6 5.5 1.3 11.4 2.8 13 3.3 1.7.4 5.7 1.6 9 2.5 12.4 3.3 26 7.8 27.2 8.9.9.8.9 3.5.2 10.6-2 20.9-2.2 34.1-.4 43 2.8 14.3 3.6 20.3 2.8 21.1-2.3 2.1-35.5 11.1-51.3 13.9-24.4 4.3-34.8 5.7-75.5 10.1-6 .6-13.2 1.4-16 1.8l-5 .6-.3 9.4c-.1 5.2.2 11.8.8 14.7 1.4 6.8 7.8 19.6 12.9 25.9 8.3 10.3 9.6 16.6 3.9 19.6-1.3.6-3.2 1.9-4.3 2.9-9.6 8.5-49.5 23-80 29.1-2.7.5-7 1.4-9.5 1.9-7 1.5-46.1 7.3-61 9-49.2 6-89.7 8.4-157.5 9.5-24.1.4-37.5.3-38.4-.4-.9-.6-1.8-3.7-2.2-8.3-.4-4.1-2.7-13.6-5.4-21.8-2.5-8-5-15.9-5.5-17.6-.6-1.7-1-4.7-1-6.7s-.4-4.6-.9-5.9c-.8-2.3-2.5-8.5-4.3-16.3-1.7-7.4-3-17-3.9-28.5-.4-6.3-1.4-16.9-2-23.5-.6-6.6-1-16.1-1-21 .1-20.7 1.9-76.1 3-90.7.8-11 .8-22.3.1-38.5-.5-12.5-1-27.4-1-33.1V340h2.8c1.5 0 10.4.9 19.7 2z"/><path d="M651.5 411.6c-5.4.9-15.8 4.7-21 7.6-7.3 4.3-19.2 16.3-22.4 22.8-6.2 12.2-8.6 25.5-6.6 36.7 2.7 15.7 7 24.5 16.2 33.5 22.7 22.1 53.6 24.6 78.5 6.3 16.1-11.8 26.6-35.9 23.8-54.5-2.2-13.9-5.4-20.9-15.1-32.5-5.7-7-7.7-8.6-15.3-12.5-4.8-2.4-10.8-5-13.4-5.7-5.1-1.4-19.9-2.4-24.7-1.7zm21.3 30.3c.9.5 3 1.5 4.6 2.2 4.3 2.1 9.6 9.5 9.6 13.6 0 1.8.5 4.2 1.2 5.3 1 1.5 1 2.6 0 5.3-.7 1.8-1.2 4-1.2 4.8 0 1.6-10.1 11.6-13.7 13.7-3.1 1.6-13.8 1.5-17.1-.2-3-1.6-12-10.8-14-14.3-1.6-3.1-1.5-9.9.4-15.3 1.7-4.8 6.9-10 13.8-13.7 4.3-2.3 13.1-3.1 16.4-1.4z"/></g></svg>